<svg width="48" height="48" viewBox="0 0 48 48" fill="none" xmlns="http://www.w3.org/2000/svg">
<path d="M23.9854 5C31.7144 5.00001 37.9744 11.2689 37.9746 19.001C37.9746 22.1785 36.9167 25.1081 35.1348 27.458L26.3428 42.6992C26.259 42.907 26.1435 43.0959 26.0127 43.2725L25.9238 43.4258L25.9004 43.4131C25.703 43.6441 25.4653 43.837 25.2002 43.9863C24.1024 39.3263 23.1179 34.9016 22.7148 32.625C24.0438 32.6015 25.4901 32.2441 27.0527 31.5527C29.5292 30.457 31.3975 28.9422 32.6582 27.0088C35.0056 23.4657 35.2734 19.6438 33.4619 15.542C32.0804 12.4139 29.9143 10.6202 26.9629 10.1621C23.9985 9.6746 20.2755 10.4226 15.7939 12.4053C13.8338 13.2725 12.0581 14.2673 10.4668 15.3896C12.0281 9.51932 17.3029 5.1652 23.624 5.00488L23.9854 5ZM15.8174 15.5693C18.6182 14.3303 20.8727 13.968 22.5801 14.4824C24.3039 14.9544 25.6804 16.3564 26.71 18.6875C27.2704 19.9564 27.6576 21.2314 27.8711 22.5127C28.101 23.7515 27.9742 25.0603 27.4902 26.4385C27.0063 27.8167 26.0559 28.8192 24.6406 29.4453C23.8153 29.8104 23.0197 30.003 22.2539 30.0244C21.1409 23.6739 20.3825 20.041 19.9785 19.126C19.5615 18.1817 19.2133 17.5941 18.9355 17.3643C18.4282 17.4124 17.7175 17.6387 16.8037 18.043C14.4744 19.0735 12.7299 20.3919 11.5713 21.998L11.6641 22.3281C12.3279 22.6341 12.7775 22.894 13.0127 23.1074C13.2774 23.3078 13.5336 23.6884 13.7812 24.249C14.3896 25.6267 15.0796 28.4511 15.8564 32.7217L12.7744 27.3789C11.0675 25.0947 10.0446 22.271 10 19.21C11.5589 17.8102 13.4976 16.5956 15.8174 15.5693Z" fill="url(#paint0_linear_624_1056)"/>
<defs>
<linearGradient id="paint0_linear_624_1056" x1="23.9873" y1="5" x2="23.9873" y2="43.9863" gradientUnits="userSpaceOnUse">
<stop stop-color="#4F68B3"/>
</linearGradient>
</defs>
</svg>
